<svg width="250" height="65" viewBox="0 0 250 65" fill="none" xmlns="http://www.w3.org/2000/svg">
<path d="M231.923 9.95301C231.85 10.3102 231.734 10.6621 231.604 11.0272C231.453 11.4478 231.305 11.8685 231.155 12.2891C230.856 13.1225 230.552 13.9506 230.225 14.7734C229.89 15.6148 229.47 16.4402 228.979 17.1995C227.858 18.9377 226.435 19.4907 224.63 18.9959C222.953 18.5329 221.832 17.2524 221.889 15.2549C221.956 12.895 222.172 10.5086 222.657 8.20422C223.177 5.7411 224.719 4.64843 226.938 4.63256C228.486 4.61933 230.007 5.16699 230.947 6.46601C230.952 6.4713 230.955 6.47924 230.96 6.48453C231.417 7.12214 231.825 7.90526 231.957 8.69367C232.03 9.13815 232.004 9.55087 231.921 9.95566L231.923 9.95301Z" fill="#C63663"/>
<path d="M120.025 24.2066C120.025 23.8299 120.025 23.4533 120.025 23.0767C120.025 18.609 120.017 14.1413 120.025 9.67356C120.033 5.64484 122.923 3.34086 126.913 4.16687C129.213 4.64481 130.839 6.68644 130.847 9.36966C130.881 19.2765 130.881 29.186 130.847 39.0928C130.836 41.6332 129.465 43.4566 127.293 44.1346C124.812 44.9086 122.517 44.2593 120.956 42.2202C116.557 36.4694 112.198 30.6899 107.821 24.9209C107.627 24.6637 107.422 24.4118 107.028 23.913C106.992 24.5261 106.955 24.8871 106.955 25.2482C106.95 29.6431 106.968 34.0381 106.937 38.4357C106.931 39.2539 106.832 40.0981 106.601 40.8825C105.832 43.5086 103.406 44.6437 101.001 44.3995C98.0058 44.0956 96.1357 42.1553 96.1278 39.3915C96.0964 29.2665 96.1147 19.144 96.12 9.019C96.12 8.76964 96.1619 8.51768 96.2091 8.27092C96.6104 6.16175 97.8143 4.66039 99.9467 4.21622C102.231 3.74088 104.372 4.05258 105.927 6.11759C110.281 11.8996 114.669 17.6583 119.049 23.4247C119.277 23.7234 119.526 24.004 119.768 24.2949C119.854 24.2637 119.941 24.2351 120.027 24.204L120.025 24.2066Z" fill="#EF6A00"/>
<path d="M194.802 24.2319C194.802 27.2874 194.82 30.3455 194.797 33.4009C194.778 35.6646 194.862 37.9439 194.613 40.1843C194.285 43.1203 191.803 44.5663 189.069 44.4209C186.049 44.26 184.007 42.2403 183.994 39.3665C183.949 29.2863 183.96 19.2035 183.989 9.12068C183.994 6.84919 185.398 5.01123 187.434 4.34147C189.775 3.57305 192.288 4.19609 193.676 6.01069C198.121 11.8153 202.529 17.6485 206.953 23.4687C207.168 23.7543 207.399 24.0268 207.819 24.5512C207.856 23.9204 207.893 23.557 207.893 23.1935C207.898 18.622 207.885 14.0479 207.9 9.47633C207.908 6.87255 209.273 4.95412 211.54 4.28435C215.402 3.14472 218.719 5.54081 218.721 9.50229C218.729 19.2969 218.727 29.089 218.721 38.8837C218.721 41.4797 217.467 43.3721 215.282 44.1042C212.805 44.9349 210.404 44.26 208.842 42.2195C204.471 36.4954 200.126 30.753 195.77 25.0185C195.539 24.7148 195.293 24.424 195.051 24.1255C194.967 24.1592 194.883 24.1956 194.799 24.2293L194.802 24.2319Z" fill="#EF6A00"/>
<path d="M19.0067 24.2142C19.0067 19.8813 19.0067 15.5485 19.0067 11.2156C19.0067 7.27135 21.2547 4.72414 25.2624 4.66112C29.6469 4.59547 34.0713 4.60598 38.4213 5.08916C47.3311 6.08178 53.9796 13.0406 54.8873 21.8141C55.4792 27.544 54.2264 32.7461 50.3356 37.1446C46.872 41.0626 42.3547 43.1502 37.1739 43.5625C33.1317 43.8855 29.0524 43.8225 24.9916 43.7962C21.5626 43.7752 19.0173 41.1282 19.0067 37.7565C18.9934 33.2424 19.004 28.7257 19.004 24.2116L19.0067 24.2142ZM29.9548 33.4708C31.7383 33.4708 33.4343 33.484 35.1303 33.4708C39.7112 33.4315 43.3898 30.1831 44.0533 25.606C44.7301 20.9317 42.0946 16.5148 37.6225 15.4697C35.186 14.8999 32.593 14.9865 29.9574 14.7686V33.4761L29.9548 33.4708Z" fill="#EF6A00"/>
<path d="M145.619 28.7303C145.588 29.284 145.553 29.6219 145.553 29.9625C145.548 32.8844 145.553 35.8037 145.551 38.7256C145.543 42.8147 142.439 45.1959 138.426 44.195C136.281 43.6595 134.695 41.6605 134.687 39.2767C134.661 29.2164 134.653 19.1561 134.69 9.09321C134.7 6.01274 136.977 3.97468 140.168 4.00068C143.337 4.02667 145.487 6.07252 145.537 9.21279C145.588 12.1685 145.548 15.1268 145.548 18.0825C145.548 18.4724 145.548 18.8598 145.548 19.2497C145.622 19.2861 145.696 19.3199 145.767 19.3563C146.006 19.0781 146.259 18.8078 146.481 18.5166C149.427 14.6485 152.354 10.7673 155.318 6.91218C156.514 5.35505 157.898 4.02927 160.082 4.00068C162.248 3.97208 163.934 4.85073 165.03 6.67302C166.163 8.5551 166.221 10.5308 165.046 12.4102C164.398 13.4475 163.565 14.3781 162.762 15.314C160.512 17.9317 158.235 20.5235 155.972 23.1308C155.737 23.4012 155.524 23.6923 155.244 24.0459C156.939 25.9305 158.607 27.7918 160.277 29.6505C161.734 31.27 163.231 32.861 164.648 34.5143C166.822 37.0515 166.793 40.6103 164.64 42.7939C162.567 44.8969 159.292 45.0659 157.286 42.9109C155.113 40.5739 153.184 38.0159 151.168 35.5411C149.564 33.5707 147.985 31.5794 146.391 29.5985C146.196 29.3568 145.975 29.1332 145.614 28.7303H145.619Z" fill="#EF6A00"/>
<path d="M58.206 19.2658C58.206 16.0526 58.1827 12.8394 58.2111 9.62881C58.2448 5.84061 60.7032 3.68113 64.4374 4.11563C66.6318 4.3706 68.451 6.15543 68.7202 8.35133C68.79 8.92113 68.8056 9.50393 68.8056 10.0789C68.8107 15.7092 68.8159 21.3395 68.8056 26.9723C68.803 29.124 69.3361 31.0675 71.044 32.4881C72.9227 34.0492 75.068 34.3978 77.309 33.3987C79.6199 32.3684 80.9138 30.4925 80.9423 27.9662C81.0122 21.8676 80.9578 15.7664 80.9682 9.66524C80.9734 6.9958 82.2905 5.03666 84.529 4.30556C88.1804 3.11394 91.6299 5.5336 91.648 9.37384C91.6791 15.9069 91.7205 22.44 91.6299 28.9731C91.5186 37.1739 85.2484 43.6732 77.0917 44.3549C72.4725 44.7425 68.1715 44.0088 64.4011 41.2067C60.3745 38.2146 58.4285 34.0648 58.2474 29.1162C58.1257 25.8353 58.2241 22.5493 58.2241 19.2632C58.2163 19.2632 58.2085 19.2632 58.1982 19.2632L58.206 19.2658Z" fill="#EF6A00"/>
<path d="M180.164 24.2127C180.164 29.1099 180.182 34.0071 180.156 38.9017C180.138 42.0878 178.657 43.8171 175.578 44.365C172.448 44.9207 169.581 42.7188 169.482 39.5743C169.393 36.8037 169.44 34.0305 169.44 31.2573C169.44 23.8414 169.429 16.4228 169.471 9.0069C169.484 6.61023 171.07 4.69652 173.267 4.19277C177.153 3.30214 180.122 5.56898 180.153 9.51844C180.19 14.4157 180.161 19.3103 180.161 24.2075L180.164 24.2127Z" fill="#EF6A00"/>
<path d="M224.416 39.3945C223.916 39.3945 223.427 39.5429 223.011 39.8199C222.596 40.0969 222.272 40.4927 222.079 40.9552C221.889 41.4177 221.837 41.9247 221.936 42.4169C222.035 42.909 222.275 43.3567 222.628 43.7104C222.982 44.0641 223.432 44.304 223.921 44.4029C224.411 44.4994 224.92 44.4499 225.383 44.2595C225.845 44.069 226.238 43.745 226.518 43.327C226.797 42.9091 226.943 42.4218 226.943 41.9222C226.943 41.252 226.676 40.6089 226.204 40.134C225.729 39.6592 225.086 39.3945 224.416 39.3945ZM224.416 43.9454C224.015 43.9454 223.625 43.8266 223.293 43.604C222.962 43.3814 222.702 43.0649 222.549 42.6963C222.396 42.3278 222.356 41.9197 222.433 41.5265C222.512 41.1332 222.702 40.7746 222.987 40.4902C223.271 40.2058 223.63 40.0153 224.023 39.9362C224.416 39.857 224.821 39.8991 225.192 40.0524C225.561 40.2058 225.877 40.4655 226.1 40.7969C226.322 41.1283 226.441 41.5215 226.441 41.9197C226.441 42.4564 226.228 42.9709 225.848 43.3493C225.469 43.7277 224.955 43.9429 224.418 43.9429L224.416 43.9454Z" fill="#EF6A00"/>
<path d="M225.526 41.4181C225.526 41.2178 225.433 41.0248 225.264 40.8813C225.096 40.7379 224.87 40.6587 224.635 40.6587H223.151V43.1869H223.743V42.1751H224.176L224.968 43.1869H225.68L224.864 42.1454C225.053 42.1034 225.218 42.0069 225.337 41.8758C225.456 41.7447 225.52 41.5839 225.523 41.4157L225.526 41.4181ZM224.638 41.6705H223.746V41.1658H224.638C224.716 41.1658 224.791 41.193 224.846 41.24C224.902 41.287 224.934 41.3513 224.934 41.4181C224.934 41.4849 224.902 41.5492 224.846 41.5962C224.791 41.6433 224.716 41.6705 224.638 41.6705Z" fill="#EF6A00"/>
<path d="M209.148 61C207.806 61 207.1 60.0465 207.1 58.6868V50.0697C207.1 48.9396 207.965 48.145 209.077 48.145C209.943 48.145 210.508 48.5335 210.984 49.1692L213.351 52.3476C213.774 52.9127 214.233 53.5484 214.622 54.2194V50.4406C214.622 49.0986 215.328 48.145 216.67 48.145C218.012 48.145 218.719 49.0986 218.719 50.4406V59.0753C218.719 60.2054 217.853 61 216.759 61C215.876 61 215.328 60.6116 214.834 59.9759L212.326 56.7974C211.956 56.3207 211.532 55.685 211.196 55.1552V58.6868C211.196 60.0465 210.49 61 209.148 61Z" fill="#5D330E"/>
<path d="M206.405 58.2807C206.511 58.5279 206.599 58.8458 206.599 59.1283C206.599 60.1525 205.699 61 204.71 61C203.862 61 203.262 60.5762 202.962 59.7993L202.662 58.987H198.706L198.406 59.7993C198.106 60.5762 197.506 61 196.711 61C195.669 61 194.769 60.1525 194.769 59.1283C194.769 58.8458 194.839 58.5632 194.963 58.2807L198.441 50.0344C198.936 48.8867 199.483 48.145 200.684 48.145C201.885 48.145 202.432 48.8867 202.927 50.0344L206.405 58.2807ZM201.532 55.9145L200.684 53.5484L199.836 55.9145H201.532Z" fill="#5D330E"/>
<path d="M191.053 61C189.853 61 189.005 60.1348 189.005 58.9164V56.3736L185.738 51.659C185.403 51.1645 185.279 50.6171 185.279 50.264C185.279 48.9573 186.286 48.145 187.416 48.145C188.264 48.145 188.811 48.5158 189.323 49.3458L190.329 51.0056C190.594 51.4294 190.842 51.8532 191.053 52.33C191.265 51.8532 191.513 51.4294 191.777 51.0056L192.784 49.3458C193.296 48.5158 193.843 48.145 194.691 48.145C195.821 48.145 196.828 48.9573 196.828 50.264C196.828 50.6171 196.704 51.1645 196.369 51.659L193.102 56.3736V58.9164C193.102 60.1348 192.254 61 191.053 61Z" fill="#5D330E"/>
<path d="M187.134 58.2807C187.24 58.5279 187.328 58.8458 187.328 59.1283C187.328 60.1525 186.427 61 185.439 61C184.591 61 183.991 60.5762 183.69 59.7993L183.39 58.987H179.435L179.135 59.7993C178.834 60.5762 178.234 61 177.439 61C176.398 61 175.497 60.1525 175.497 59.1283C175.497 58.8458 175.568 58.5632 175.691 58.2807L179.17 50.0344C179.664 48.8867 180.212 48.145 181.412 48.145C182.613 48.145 183.161 48.8867 183.655 50.0344L187.134 58.2807ZM182.26 55.9145L181.412 53.5484L180.565 55.9145H182.26Z" fill="#5D330E"/>
<path d="M167.64 60.7527C166.421 60.7527 165.574 59.8874 165.574 58.669V50.4757C165.574 49.2573 166.421 48.3921 167.64 48.3921H170.977C173.184 48.3921 174.703 49.8047 174.703 51.4822C174.703 52.736 174.156 53.5306 173.626 53.9544C174.756 54.4664 175.462 55.5083 175.462 56.8326C175.462 59.0045 174.014 60.7527 171.189 60.7527H167.64ZM169.635 52.9479H170.324C170.889 52.9479 171.171 52.683 171.171 52.2062C171.171 51.7295 170.889 51.4646 170.324 51.4646H169.635V52.9479ZM169.635 57.433H170.341C170.959 57.433 171.401 57.1151 171.401 56.5324C171.401 55.9497 170.959 55.6319 170.341 55.6319H169.635V57.433Z" fill="#5D330E"/>
<path d="M155.748 61C151.863 61 149.144 58.1218 149.144 54.5725C149.144 51.0233 152.004 48.145 155.748 48.145C157.496 48.145 158.802 48.6041 159.774 49.4517C160.374 49.9815 160.621 50.5465 160.621 51.0762C160.621 52.171 159.844 52.9833 158.75 52.9833C158.308 52.9833 157.955 52.8774 157.619 52.6478C157.001 52.2064 156.525 51.9945 155.748 51.9945C154.317 51.9945 153.205 53.0893 153.205 54.5902C153.205 56.1794 154.317 57.3272 155.748 57.3272C156.631 57.3272 157.196 57.0446 157.602 56.4619C157.213 56.6385 156.913 56.6915 156.578 56.6915C155.765 56.6915 155.147 56.0911 155.147 55.2788C155.147 54.4666 155.765 53.8662 156.578 53.8662H159.332C160.144 53.8662 160.763 54.4666 160.763 55.2788V56.7621C160.763 58.2807 160.462 58.6868 159.738 59.4108C158.944 60.1878 157.566 61 155.748 61Z" fill="#5D330E"/>
<path d="M138.655 61C137.313 61 136.606 60.0465 136.606 58.6868V50.0697C136.606 48.9396 137.472 48.145 138.584 48.145C139.449 48.145 140.014 48.5335 140.491 49.1692L142.857 52.3476C143.281 52.9127 143.74 53.5484 144.129 54.2194V50.4406C144.129 49.0986 144.835 48.145 146.177 48.145C147.519 48.145 148.225 49.0986 148.225 50.4406V59.0753C148.225 60.2054 147.36 61 146.265 61C145.382 61 144.835 60.6116 144.341 59.9759L141.833 56.7974C141.462 56.3207 141.039 55.685 140.703 55.1552V58.6868C140.703 60.0465 139.997 61 138.655 61Z" fill="#5D330E"/>
<path d="M126.78 61C122.896 61 120.176 58.1218 120.176 54.5725C120.176 51.0233 123.037 48.145 126.78 48.145C128.529 48.145 129.835 48.6041 130.806 49.4517C131.407 49.9815 131.654 50.5465 131.654 51.0762C131.654 52.171 130.877 52.9833 129.782 52.9833C129.341 52.9833 128.988 52.8774 128.652 52.6478C128.034 52.2064 127.557 51.9945 126.78 51.9945C125.35 51.9945 124.238 53.0893 124.238 54.5902C124.238 56.1794 125.35 57.3272 126.78 57.3272C127.663 57.3272 128.228 57.0446 128.634 56.4619C128.246 56.6385 127.946 56.6915 127.61 56.6915C126.798 56.6915 126.18 56.0911 126.18 55.2788C126.18 54.4666 126.798 53.8662 127.61 53.8662H130.365C131.177 53.8662 131.795 54.4666 131.795 55.2788V56.7621C131.795 58.2807 131.495 58.6868 130.771 59.4108C129.976 60.1878 128.599 61 126.78 61Z" fill="#5D330E"/>
<path d="M109.687 61C108.345 61 107.639 60.0465 107.639 58.6868V50.0697C107.639 48.9396 108.504 48.145 109.617 48.145C110.482 48.145 111.047 48.5335 111.524 49.1692L113.89 52.3476C114.314 52.9127 114.773 53.5484 115.161 54.2194V50.4406C115.161 49.0986 115.868 48.145 117.21 48.145C118.552 48.145 119.258 49.0986 119.258 50.4406V59.0753C119.258 60.2054 118.393 61 117.298 61C116.415 61 115.868 60.6116 115.373 59.9759L112.866 56.7974C112.495 56.3207 112.071 55.685 111.736 55.1552V58.6868C111.736 60.0465 111.029 61 109.687 61Z" fill="#5D330E"/>
<path d="M100.111 61C96.4557 61 93.5068 58.1218 93.5068 54.5725C93.5068 51.0233 96.4557 48.145 100.111 48.145C103.766 48.145 106.715 51.0233 106.715 54.5725C106.715 58.1218 103.766 61 100.111 61ZM100.111 57.0446C101.524 57.0446 102.618 55.9852 102.618 54.5725C102.618 53.1599 101.524 52.1004 100.111 52.1004C98.6983 52.1004 97.6035 53.1599 97.6035 54.5725C97.6035 55.9852 98.6983 57.0446 100.111 57.0446Z" fill="#5D330E"/>
<path d="M85.3638 60.7527C84.1454 60.7527 83.2979 59.8874 83.2979 58.669V50.4757C83.2979 49.2573 84.1454 48.3921 85.3638 48.3921H88.7012C90.9084 48.3921 92.427 49.8047 92.427 51.4822C92.427 52.736 91.8796 53.5306 91.3499 53.9544C92.48 54.4664 93.1863 55.5083 93.1863 56.8326C93.1863 59.0045 91.7384 60.7527 88.9131 60.7527H85.3638ZM87.3592 52.9479H88.0479C88.6129 52.9479 88.8954 52.683 88.8954 52.2062C88.8954 51.7295 88.6129 51.4646 88.0479 51.4646H87.3592V52.9479ZM87.3592 57.433H88.0655C88.6835 57.433 89.125 57.1151 89.125 56.5324C89.125 55.9497 88.6835 55.6319 88.0655 55.6319H87.3592V57.433Z" fill="#5D330E"/>
<path d="M76.7979 61C73.5488 61 71.3945 58.7575 71.3945 55.7026V50.2287C71.3945 49.0279 72.2598 48.145 73.4429 48.145C74.6259 48.145 75.4912 49.0279 75.4912 50.2287V55.5614C75.4912 56.3736 76.0916 56.9387 76.7979 56.9387C77.5042 56.9387 78.1046 56.3736 78.1046 55.5614V50.2287C78.1046 49.0279 78.9698 48.145 80.1529 48.145C81.336 48.145 82.2012 49.0279 82.2012 50.2287V55.7026C82.2012 58.7575 80.0469 61 76.7979 61Z" fill="#5D330E"/>
<path d="M69.1468 56.7974C70.3476 56.7974 71.2305 57.6274 71.2305 58.7751C71.2305 59.9229 70.3476 60.7528 69.1468 60.7528H63.8848C62.684 60.7528 61.8364 59.8876 61.8364 58.6692V50.2287C61.8364 49.0103 62.684 48.145 63.8848 48.145C65.0855 48.145 65.9331 49.0103 65.9331 50.2287V56.7974H69.1468Z" fill="#5D330E"/>
<path d="M61.142 58.2807C61.2479 58.5279 61.3362 58.8458 61.3362 59.1283C61.3362 60.1525 60.4357 61 59.4468 61C58.5992 61 57.9989 60.5762 57.6987 59.7993L57.3985 58.987H53.4431L53.1429 59.7993C52.8427 60.5762 52.2424 61 51.4478 61C50.4059 61 49.5054 60.1525 49.5054 59.1283C49.5054 58.8458 49.576 58.5632 49.6996 58.2807L53.1782 50.0344C53.6727 48.8867 54.2201 48.145 55.4208 48.145C56.6215 48.145 57.1689 48.8867 57.6634 50.0344L61.142 58.2807ZM56.2684 55.9145L55.4208 53.5484L54.5732 55.9145H56.2684Z" fill="#5D330E"/>
<path d="M44.65 61C43.1667 61 41.5069 60.5762 40.5533 59.4108C40.0766 58.8458 39.8823 58.2807 39.8823 57.7686C39.8823 56.6738 40.8005 55.8792 41.7894 55.8792C42.3898 55.8792 43.0078 56.1617 43.4846 56.8328C43.8024 57.2742 44.2439 57.5391 44.703 57.5391C45.1444 57.5391 45.3386 57.3095 45.3386 57.0093C45.3386 56.6738 45.0561 56.4619 44.544 56.25L42.7782 55.5261C41.1184 54.8374 40.2178 53.7073 40.2178 52.0298C40.2178 49.6813 42.1425 48.145 44.9149 48.145C46.4864 48.145 47.8108 48.4982 48.782 49.593C49.1704 50.0344 49.3294 50.5112 49.3294 50.9526C49.3294 52.0828 48.4111 52.9127 47.387 52.9127C46.8572 52.9127 46.2922 52.6478 45.8154 52.0474C45.4799 51.6236 45.1974 51.4294 44.7559 51.4294C44.4204 51.4294 44.1732 51.6236 44.1732 51.9062C44.1732 52.224 44.4204 52.3829 45.1091 52.6478L46.3805 53.1422C48.4818 53.9545 49.4353 54.961 49.4353 56.974C49.4353 59.1636 47.6872 61 44.65 61Z" fill="#5D330E"/>
<path d="M39.6117 58.2807C39.7177 58.5279 39.806 58.8458 39.806 59.1283C39.806 60.1525 38.9054 61 37.9165 61C37.069 61 36.4686 60.5762 36.1684 59.7993L35.8682 58.987H31.9128L31.6126 59.7993C31.3125 60.5762 30.7121 61 29.9175 61C28.8757 61 27.9751 60.1525 27.9751 59.1283C27.9751 58.8458 28.0457 58.5632 28.1693 58.2807L31.648 50.0344C32.1424 48.8867 32.6898 48.145 33.8905 48.145C35.0913 48.145 35.6387 48.8867 36.1331 50.0344L39.6117 58.2807ZM34.7381 55.9145L33.8905 53.5484L33.0429 55.9145H34.7381Z" fill="#5D330E"/>
<path d="M21.0483 60.9999C19.8476 60.9999 19 60.1347 19 58.9163V50.4757C19 49.2573 19.8476 48.3921 21.066 48.3921H24.474C27.2286 48.3921 29.0651 50.1755 29.0651 52.7183C29.0651 55.261 27.2286 57.0445 24.474 57.0445H23.0967V58.9163C23.0967 60.1347 22.2491 60.9999 21.0483 60.9999ZM23.0967 53.9544H23.8206C24.5976 53.9544 25.1803 53.4952 25.1803 52.7183C25.1803 51.9413 24.5976 51.4822 23.8206 51.4822H23.0967V53.9544Z" fill="#5D330E"/>
</svg>
